# xmcd
# Track frame offsets:
# 150
# 18273
# 30842
# 49198
# 64407
# 81902
# 97074
# 112511
# 129533
# 143701
# 162309
#
# Disc length: 2506 seconds
# Revision: 1
# Processed by: cddbd v1.5.2PL0 Copyright (c) Steve Scherf et al.
# Submitted via: VisiTrax 2.11.2.271 - For more info visit www.synapsa.com
#
DISCID=8709c80b
DTITLE=Ester Brohus - Coming Home
DYEAR=2010
DGENRE=
TTITLE0=It's me talking
TTITLE1=Who's gonna let you down tonight
TTITLE2=Jailsong
TTITLE3=Sweetheart
TTITLE4=Missing you
TTITLE5=Worried eyes
TTITLE6=Lonesome dreamer
TTITLE7=Not perfect but forgiven
TTITLE8=It's a lie
TTITLE9=Comming home
TTITLE10=One day at time
EXTD=
EXTT0=
EXTT1=
EXTT2=
EXTT3=
EXTT4=
EXTT5=
EXTT6=
EXTT7=
EXTT8=
EXTT9=
EXTT10=
PLAYORDER=
